<?xml version="1.0" encoding="utf-8"?>
<!-- Generator: Adobe Illustrator 17.0.0, SVG Export Plug-In . SVG Version: 6.00 Build 0)  -->
<!DOCTYPE svg PUBLIC "-//W3C//DTD SVG 1.1//EN" "http://www.w3.org/Graphics/SVG/1.1/DTD/svg11.dtd">
<svg version="1.1" id="Layer_1" xmlns="http://www.w3.org/2000/svg" xmlns:xlink="http://www.w3.org/1999/xlink" x="0px" y="0px"
	 width="16px" height="16px" viewBox="0 0 16 16" enable-background="new 0 0 16 16" xml:space="preserve">
<path fill-rule="evenodd" clip-rule="evenodd" fill="#FFFFFF" d="M14,4h-1V2c0-1.105-0.895-2-2-2H5C3.896,0,3,0.895,3,2v2H2
	C0.895,4,0,4.895,0,6v6c0,1.105,0.895,2,2,2h1c0,1.105,0.896,2,2,2h6c1.105,0,2-0.895,2-2h1c1.105,0,2-0.895,2-2V6
	C16,4.895,15.105,4,14,4z M5,2h6v2H5V2z M3,12H2v-2h1V12z M11,14H5v-2h6V14z M14,12h-1v-2h1V12z M14,9H2V6h12V9z M13,7h-1v1h1V7z"/>
</svg>
